<svg id="Layer_1" data-name="Layer 1" xmlns="http://www.w3.org/2000/svg" viewBox="0 0 794.05 972.54"><defs><style>.cls-1{font-size:334.64px;font-family:Mafalda-Normal, Mafalda;letter-spacing:-0.03em;}.cls-2{letter-spacing:-0.04em;}.cls-3{letter-spacing:0em;}.cls-4{fill:#54c2ed;}.cls-5{fill:none;stroke:#000;stroke-linejoin:round;stroke-width:12.39px;}.cls-6{fill:#fff;}</style></defs><title>LogoTransparent</title><text class="cls-1" transform="translate(161.67 863.91)">f<tspan class="cls-2" x="102.06" y="0">l</tspan><tspan x="166.98" y="0">o</tspan><tspan class="cls-3" x="297.5" y="0">ri</tspan></text><path class="cls-4" d="M487.72,463.12a16.21,16.21,0,0,0,7-18L482.1,405.17c-2.05-6.5-8.92-13.87-15.25-16.39l-58.23-23.11c-6.33-2.52-16.7-2.52-23,0l-58.19,23.07c-6.33,2.52-13.16,9.9-15.16,16.42l-12.44,40.43a16.3,16.3,0,0,0,7.09,18l79.53,45.77c5.9,3.4,15.56,3.39,21.46,0Z"/><path class="cls-5" d="M487.72,463.12a16.21,16.21,0,0,0,7-18L482.1,405.17c-2.05-6.5-8.92-13.87-15.25-16.39l-58.23-23.11c-6.33-2.52-16.7-2.52-23,0l-58.19,23.07c-6.33,2.52-13.16,9.9-15.16,16.42l-12.44,40.43a16.3,16.3,0,0,0,7.09,18l79.53,45.77c5.9,3.4,15.56,3.39,21.46,0Z"/><path class="cls-4" d="M246,402.65a16.19,16.19,0,0,0,18,7L304,397c6.5-2.06,13.87-8.92,16.39-15.25l23.12-58.23c2.51-6.34,2.51-16.7,0-23L320.4,242.33c-2.52-6.34-9.9-13.16-16.41-15.16l-40.44-12.45a16.31,16.31,0,0,0-18,7.1l-45.77,79.52c-3.4,5.91-3.39,15.57,0,21.47Z"/><path class="cls-5" d="M246,402.65a16.19,16.19,0,0,0,18,7L304,397c6.5-2.06,13.87-8.92,16.39-15.25l23.12-58.23c2.51-6.34,2.51-16.7,0-23L320.4,242.33c-2.52-6.34-9.9-13.16-16.41-15.16l-40.44-12.45a16.31,16.31,0,0,0-18,7.1l-45.77,79.52c-3.4,5.91-3.39,15.57,0,21.47Z"/><path class="cls-4" d="M306.33,161.06a16.21,16.21,0,0,0-7,18L312,219c2.05,6.5,8.91,13.87,15.25,16.39l58.23,23.11c6.33,2.52,16.7,2.52,23,0l58.2-23.08c6.33-2.51,13.16-9.89,15.16-16.41l12.44-40.43a16.29,16.29,0,0,0-7.09-18l-79.53-45.77c-5.9-3.4-15.56-3.39-21.46,0Z"/><path class="cls-5" d="M306.33,161.06a16.21,16.21,0,0,0-7,18L312,219c2.05,6.5,8.91,13.87,15.25,16.39l58.23,23.11c6.33,2.52,16.7,2.52,23,0l58.2-23.08c6.33-2.51,13.16-9.89,15.16-16.41l12.44-40.43a16.29,16.29,0,0,0-7.09-18l-79.53-45.77c-5.9-3.4-15.56-3.39-21.46,0Z"/><path class="cls-4" d="M548,221.53a16.22,16.22,0,0,0-18-7l-39.92,12.61c-6.5,2.06-13.87,8.92-16.39,15.25l-23.12,58.23c-2.51,6.34-2.51,16.7,0,23l23.07,58.19c2.51,6.34,9.9,13.16,16.41,15.16l40.44,12.45a16.31,16.31,0,0,0,18-7.1l45.77-79.52c3.4-5.91,3.39-15.57,0-21.47Z"/><path class="cls-5" d="M548,221.53a16.22,16.22,0,0,0-18-7l-39.92,12.61c-6.5,2.06-13.87,8.92-16.39,15.25l-23.12,58.23c-2.51,6.34-2.51,16.7,0,23l23.07,58.19c2.51,6.34,9.9,13.16,16.41,15.16l40.44,12.45a16.31,16.31,0,0,0,18-7.1l45.77-79.52c3.4-5.91,3.39-15.57,0-21.47Z"/><rect class="cls-6" x="362.71" y="277.91" width="68.64" height="68.64" rx="12.39" ry="12.39" transform="translate(-104.49 372.19) rotate(-45)"/><rect class="cls-5" x="362.71" y="277.91" width="68.64" height="68.64" rx="12.39" ry="12.39" transform="translate(-104.49 372.19) rotate(-45)"/></svg>