<svg id="Layer_1" data-name="Layer 1" xmlns="http://www.w3.org/2000/svg" viewBox="0 0 794.05 972.54"><defs><style>.cls-1{fill:#54c2ed;}.cls-2{fill:none;stroke:#000;stroke-linejoin:round;stroke-width:12.39px;}.cls-3{fill:#fff;}</style></defs><title>LogoTransparent</title><path d="M260.39,657.1v6c0,3.68-1.34,5-5,5H254c-3.68,0-5-1.34-5-5v-6c0-11-9-19.41-20.75-19.41-13.72,0-22.09,7.36-22.09,19.41v26.77h28.45c3.68,0,5,1.34,5,5v1.34c0,3.68-1.34,5-5,5H206.17V845.17c0,4.68,2,6.69,6.36,6.69h7.7c3.68,0,5,1.34,5,5v2c0,3.68-1.34,5-5,5h-6.36a16,16,0,0,1-13.72-7.7,16,16,0,0,1-13.72,7.7h-6.36c-3.68,0-5-1.34-5-5v-2c0-3.68,1.34-5,5-5h7.7c4.35,0,6.36-2,6.36-6.69V695.25H181.41c-3.68,0-5-1.34-5-5v-1.34c0-3.68,1.34-5,5-5h12.72V657.1c0-19.41,12.71-30.79,34.13-30.79C246.67,626.31,260.39,639.7,260.39,657.1Z"/><path d="M327.65,856.88v2c0,3.68-1.34,5-5,5h-6.36a15.94,15.94,0,0,1-13.72-7.7,16,16,0,0,1-13.72,7.7h-6.36c-3.68,0-5-1.34-5-5v-2c0-3.68,1.34-5,5-5h7.7c4.35,0,6.36-2,6.36-6.69V645.05c0-4.68-2-6.69-6.36-6.69H281.8c-3.68,0-5-1.34-5-5v-2c0-3.68,1.34-5,5-5h10.38c10.37,0,16.39,7,16.39,18.74V845.17c0,4.68,2,6.69,6.36,6.69h7.7C326.31,851.86,327.65,853.2,327.65,856.88Z"/><path d="M338.69,772.88c0-63.79,18.93-93,60.24-93s60.23,29.24,60.23,93c0,62.42-18.93,91-60.23,91S338.69,835.3,338.69,772.88Zm108.43,0c0-56-15.15-81.65-48.19-81.65s-48.19,25.67-48.19,81.65c0,54.62,15.14,79.65,48.19,79.65S447.12,827.5,447.12,772.88Z"/><path d="M565.38,698.59v3.69c0,3.68-1.33,5-5,5h-2.15c-3.68,0-5-1.34-5-5V700.6c0-4-1.34-5.35-5.36-5.35h-4.68c-24.4,0-38.82,21.52-38.82,61.91v88c0,4.68,2,6.69,6.36,6.69h7.69c3.69,0,5,1.34,5,5v2c0,3.68-1.33,5-5,5H512a15.92,15.92,0,0,1-13.72-7.7,16,16,0,0,1-13.72,7.7h-6.36c-3.68,0-5-1.34-5-5v-2c0-3.68,1.34-5,5-5h7.69c4.35,0,6.36-2,6.36-6.69V701.94c0-4.68-2-6.69-6.36-6.69h-8.36c-3.68,0-5-1.34-5-5v-2c0-3.68,1.34-5,5-5h10.37c10.38,0,16.4,7,16.4,18.74V708c8.18-16.31,21.47-24.84,38.82-24.84h4.68C558.89,683.2,565.24,688.89,565.38,698.59Z"/><path d="M636.19,856.88v2c0,3.68-1.34,5-5,5h-6.36a15.94,15.94,0,0,1-13.72-7.7,16,16,0,0,1-13.72,7.7H591c-3.68,0-5-1.34-5-5v-2c0-3.68,1.34-5,5-5h7.7c4.35,0,6.35-2,6.35-6.69V701.94c0-4.68-2-6.69-6.35-6.69h-8.37c-3.68,0-5-1.34-5-5v-2c0-3.68,1.34-5,5-5h10.37c10.38,0,16.4,7,16.4,18.74V845.17c0,4.68,2,6.69,6.36,6.69h7.7C634.85,851.86,636.19,853.2,636.19,856.88ZM591,639.79c0-7.46,2.58-10,10-10s10,2.58,10,10-2.59,10-10,10S591,647.24,591,639.79Z"/><path class="cls-1" d="M487.72,463.12a16.21,16.21,0,0,0,7-18L482.1,405.17c-2.05-6.5-8.92-13.87-15.25-16.39l-58.23-23.11c-6.33-2.52-16.7-2.52-23,0l-58.19,23.07c-6.33,2.52-13.16,9.9-15.16,16.42l-12.44,40.43a16.3,16.3,0,0,0,7.09,18l79.53,45.77c5.9,3.4,15.56,3.39,21.46,0Z"/><path class="cls-2" d="M487.72,463.12a16.21,16.21,0,0,0,7-18L482.1,405.17c-2.05-6.5-8.92-13.87-15.25-16.39l-58.23-23.11c-6.33-2.52-16.7-2.52-23,0l-58.19,23.07c-6.33,2.52-13.16,9.9-15.16,16.42l-12.44,40.43a16.3,16.3,0,0,0,7.09,18l79.53,45.77c5.9,3.4,15.56,3.39,21.46,0Z"/><path class="cls-1" d="M246,402.65a16.19,16.19,0,0,0,18,7L304,397c6.5-2.06,13.87-8.92,16.39-15.25l23.12-58.23c2.51-6.34,2.51-16.7,0-23L320.4,242.33c-2.52-6.34-9.9-13.16-16.41-15.16l-40.44-12.45a16.31,16.31,0,0,0-18,7.1l-45.77,79.52c-3.4,5.91-3.39,15.57,0,21.47Z"/><path class="cls-2" d="M246,402.65a16.19,16.19,0,0,0,18,7L304,397c6.5-2.06,13.87-8.92,16.39-15.25l23.12-58.23c2.51-6.34,2.51-16.7,0-23L320.4,242.33c-2.52-6.34-9.9-13.16-16.41-15.16l-40.44-12.45a16.31,16.31,0,0,0-18,7.1l-45.77,79.52c-3.4,5.91-3.39,15.57,0,21.47Z"/><path class="cls-1" d="M306.33,161.06a16.21,16.21,0,0,0-7,18L312,219c2.05,6.5,8.91,13.87,15.25,16.39l58.23,23.11c6.33,2.52,16.7,2.52,23,0l58.2-23.08c6.33-2.51,13.16-9.89,15.16-16.41l12.44-40.43a16.29,16.29,0,0,0-7.09-18l-79.53-45.77c-5.9-3.4-15.56-3.39-21.46,0Z"/><path class="cls-2" d="M306.33,161.06a16.21,16.21,0,0,0-7,18L312,219c2.05,6.5,8.91,13.87,15.25,16.39l58.23,23.11c6.33,2.52,16.7,2.52,23,0l58.2-23.08c6.33-2.51,13.16-9.89,15.16-16.41l12.44-40.43a16.29,16.29,0,0,0-7.09-18l-79.53-45.77c-5.9-3.4-15.56-3.39-21.46,0Z"/><path class="cls-1" d="M548,221.53a16.22,16.22,0,0,0-18-7l-39.92,12.61c-6.5,2.06-13.87,8.92-16.39,15.25l-23.12,58.23c-2.51,6.34-2.51,16.7,0,23l23.07,58.19c2.51,6.34,9.9,13.16,16.41,15.16l40.44,12.45a16.31,16.31,0,0,0,18-7.1l45.77-79.52c3.4-5.91,3.39-15.57,0-21.47Z"/><path class="cls-2" d="M548,221.53a16.22,16.22,0,0,0-18-7l-39.92,12.61c-6.5,2.06-13.87,8.92-16.39,15.25l-23.12,58.23c-2.51,6.34-2.51,16.7,0,23l23.07,58.19c2.51,6.34,9.9,13.16,16.41,15.16l40.44,12.45a16.31,16.31,0,0,0,18-7.1l45.77-79.52c3.4-5.91,3.39-15.57,0-21.47Z"/><rect class="cls-3" x="362.71" y="277.91" width="68.64" height="68.64" rx="12.39" ry="12.39" transform="translate(-104.49 372.19) rotate(-45)"/><rect class="cls-2" x="362.71" y="277.91" width="68.64" height="68.64" rx="12.39" ry="12.39" transform="translate(-104.49 372.19) rotate(-45)"/></svg>